<?xml version="1.0"?>
<svg xmlns="http://www.w3.org/2000/svg" id="filled_outline" data-name="filled outline" viewBox="0 0 512 512" width="512" height="512"><path d="M328,192h0a168.417,168.417,0,0,1,24,86.648v20.628a168.415,168.415,0,0,1-22.19,83.556h0a54.259,54.259,0,0,0-6.273,36.623L336,488H192V432H120V400l-16-16V352L72,336l32-64V248A104,104,0,0,1,208,144h0Z" style="fill:#428dc5"/><path d="M399.761,98.661A63.987,63.987,0,0,0,280.11,72.824a40.041,40.041,0,0,0-46.757,28.85A47.988,47.988,0,0,0,208,144h0a48,48,0,0,0,48,48H384a48,48,0,0,0,48-48h0A48.01,48.01,0,0,0,399.761,98.661Z" style="fill:#f3af3e"/><path d="M280,160H256.234a8.24,8.24,0,0,1-6.343-2.83,8.007,8.007,0,0,1-.291-9.97L264,128h-8a8,8,0,0,1-8-8h0a8,8,0,0,1,8-8h23.766a8.24,8.24,0,0,1,6.343,2.83,8.007,8.007,0,0,1,.291,9.97L272,144h8a8,8,0,0,1,8,8h0A8,8,0,0,1,280,160Z" style="fill:#d18d28"/><path d="M336,120H312.234a8.24,8.24,0,0,1-6.343-2.83,8.007,8.007,0,0,1-.291-9.97L320,88h-8a8,8,0,0,1-8-8h0a8,8,0,0,1,8-8h23.766a8.24,8.24,0,0,1,6.343,2.83,8.007,8.007,0,0,1,.291,9.97L328,104h8a8,8,0,0,1,8,8h0A8,8,0,0,1,336,120Z" style="fill:#d18d28"/><path d="M392,160H368.234a8.24,8.24,0,0,1-6.343-2.83,8.006,8.006,0,0,1-.291-9.97L376,128h-8a8,8,0,0,1-8-8h0a8,8,0,0,1,8-8h23.766a8.24,8.24,0,0,1,6.343,2.83,8.006,8.006,0,0,1,.291,9.97L384,144h8a8,8,0,0,1,8,8h0A8,8,0,0,1,392,160Z" style="fill:#d18d28"/><circle cx="232" cy="256" r="16" style="fill:#f3af3e"/><circle cx="280" cy="208" r="16" style="fill:#f3af3e"/><path d="M160,304a33.7,33.7,0,0,1-30.311-18.734l-.844-1.687a8,8,0,0,1,14.31-7.158L144,278.11a17.888,17.888,0,0,0,32,0l.845-1.691a8,8,0,0,1,14.31,7.158l-.844,1.689A33.7,33.7,0,0,1,160,304Z" style="fill:#3775a4"/><path d="M192,440H128a8,8,0,0,1,0-16h60.32l45.606-53.207a8,8,0,0,1,12.148,10.414l-48,56A8,8,0,0,1,192,440Z" style="fill:#3775a4"/><path d="M256,128h8l-14.4,19.2A8,8,0,0,0,256,160h24a8,8,0,0,0,0-16h-8l14.4-19.2A8,8,0,0,0,280,112H256a8,8,0,0,0,0,16Z"/><path d="M312,88h8l-14.4,19.2A8,8,0,0,0,312,120h24a8,8,0,0,0,0-16h-8l14.4-19.2A8,8,0,0,0,336,72H312a8,8,0,0,0,0,16Z"/><path d="M368,128h8l-14.4,19.2A8,8,0,0,0,368,160h24a8,8,0,0,0,0-16h-8l14.4-19.2A8,8,0,0,0,392,112H368a8,8,0,0,0,0,16Z"/><path d="M232,280a24,24,0,1,0-24-24A24.027,24.027,0,0,0,232,280Zm0-32a8,8,0,1,1-8,8A8.009,8.009,0,0,1,232,248Z"/><path d="M68.422,343.155,96,356.944V384a8,8,0,0,0,2.343,5.657L112,403.313V417a23.026,23.026,0,0,0,23,23h49v48a8,8,0,0,0,8,8H336a8,8,0,0,0,7.871-9.431l-12.463-68.545a46.324,46.324,0,0,1,5.349-31.223A176.7,176.7,0,0,0,360,299.275V278.647A176.44,176.44,0,0,0,341.474,200H384A56,56,0,0,0,407.146,93.006,71.988,71.988,0,0,0,276.029,64.168Q274.019,64,272,64a48.055,48.055,0,0,0-45.371,32.317,55.935,55.935,0,0,0-26.088,39.937A112.141,112.141,0,0,0,96,248v22.111L64.845,332.422A8,8,0,0,0,68.422,343.155Zm168.711-234.43a8,8,0,0,0,3.95-4.991A32.04,32.04,0,0,1,278.5,80.66a8,8,0,0,0,8.595-3.932,55.989,55.989,0,0,1,104.7,22.592,8,8,0,0,0,5.346,6.9A40,40,0,0,1,384,184H256a40,40,0,0,1-18.867-75.275ZM288,208a8,8,0,1,1-8-8A8.009,8.009,0,0,1,288,208ZM111.155,275.578A7.994,7.994,0,0,0,112,272V248a96.128,96.128,0,0,1,88.616-95.719A56.085,56.085,0,0,0,256,200h1.376a24,24,0,1,0,45.248,0h20.757A160.436,160.436,0,0,1,344,278.647v20.628a160.669,160.669,0,0,1-21.136,79.587,62.351,62.351,0,0,0-7.2,42.024L326.414,480H200V434.96l46.074-53.753a8,8,0,0,0-12.148-10.414L188.32,424H135a7.008,7.008,0,0,1-7-7V400a8,8,0,0,0-2.343-5.657L112,380.687V352a8,8,0,0,0-4.422-7.155L82.733,332.422Z"/><path d="M129.689,285.266a33.889,33.889,0,0,0,60.622,0l.844-1.689a8,8,0,0,0-14.31-7.158L176,278.112a17.888,17.888,0,0,1-32,0l-.845-1.689a8,8,0,0,0-14.31,7.158Z"/></svg>
